<?xml version="1.0" encoding="UTF-8" standalone="no"?>
<svg viewBox="0 0 22.072964 18.777382" version="1.1" id="svg130" width="22.072964" height="18.777382" sodipodi:docname="cbchero.svg" inkscape:export-filename="cbchero2.svg" inkscape:export-xdpi="96" inkscape:export-ydpi="96" inkscape:version="1.2.1 (9c6d41e410, 2022-07-14)" xmlns:inkscape="http://www.inkscape.org/namespaces/inkscape" xmlns:sodipodi="http://sodipodi.sourceforge.net/DTD/sodipodi-0.dtd" xmlns="http://www.w3.org/2000/svg" xmlns:svg="http://www.w3.org/2000/svg">
  <sodipodi:namedview id="namedview16" pagecolor="#ffffff" bordercolor="#000000" borderopacity="0.25" inkscape:showpageshadow="2" inkscape:pageopacity="0.0" inkscape:pagecheckerboard="0" inkscape:deskcolor="#d1d1d1" showgrid="false" inkscape:zoom="90.509668" inkscape:cx="5.6237086" inkscape:cy="14.528835" inkscape:window-width="1920" inkscape:window-height="1017" inkscape:window-x="-8" inkscape:window-y="1072" inkscape:window-maximized="1" inkscape:current-layer="layer2"/>
  <defs id="defs134"/>
  <g id="layer2" style="display:inline" transform="rotate(29.167189,13.71891,13.729579)">
    <path style="display:inline;fill:#c32f30;fill-opacity:1;stroke-width:0.0286738" d="M 4.1540696,18.017228 C 4.7158706,13.401049 4.8182798,12.488886 4.7791306,12.449804 4.7533797,12.424096 4.6554525,12.343848 4.5615139,12.271476 4.0528632,11.879594 3.6184861,11.128533 3.5179629,10.46712 3.4426241,9.9714125 3.4955769,9.4127209 3.6627361,8.9396569 3.7305092,8.7478589 3.7932738,8.6323379 3.9925228,8.3326739 4.2077821,8.008931 4.2662477,7.9381067 4.4592885,7.7672423 5.2739018,7.0462108 6.4279063,6.8137823 7.4314588,7.1686163 l 0.243168,0.085979 0.07028,-0.078407 C 8.669297,6.1449321 9.608372,5.574311 10.817705,5.3090275 c 2.119936,-0.4650369 4.272627,0.3259229 5.57,2.0465767 1.169629,1.5512307 1.434606,3.6474688 0.685055,5.4194898 -0.08197,0.193767 -0.16915,0.395202 -0.193748,0.447632 l -0.04472,0.09533 0.174135,0.190265 c 0.199127,0.217573 0.43708,0.595641 0.553682,0.879711 0.263626,0.642258 0.284266,1.409427 0.05623,2.090161 -0.08189,0.244446 -0.124244,0.325933 -0.338184,0.65055 -0.198026,0.300474 -0.279855,0.403374 -0.429936,0.540687 -0.370184,0.338666 -0.863806,0.605647 -1.349559,0.729927 -0.648133,0.165823 -1.5092,0.05933 -2.068636,-0.25583 -0.103319,-0.0582 -0.215427,-0.117003 -0.249135,-0.130658 -0.05123,-0.02076 -0.852093,0.430474 -4.8809943,2.750108 l -4.8197084,2.774942 z m 4.7840985,0.115483 c 2.2111139,-1.273022 3.0068389,-1.74429 3.0076529,-1.781283 6.09e-4,-0.02766 -0.01262,-0.08853 -0.02939,-0.135257 -0.03035,-0.08452 -0.03135,-0.08498 -0.197839,-0.0905 -0.297812,-0.0099 -0.819376,-0.0957 -1.176794,-0.193646 -1.1046379,-0.30271 -2.1050439,-0.964769 -2.8146499,-1.862712 -0.230524,-0.291705 -0.51322,-0.738122 -0.63879,-1.008734 -0.07012,-0.151099 -0.07093,-0.15185 -0.160592,-0.146771 -0.04957,0.0028 -0.110763,0.0144 -0.135994,0.02577 -0.03374,0.0152 -0.1567383,0.931793 -0.4649208,3.464504 -0.2304757,1.894111 -0.4136873,3.447386 -0.4071375,3.451722 0.00659,0.0044 1.3648562,-0.771057 3.0184562,-1.723097 z" id="path330-0-7"/>
    <text xml:space="preserve" style="font-style:normal;font-variant:normal;font-weight:bold;font-stretch:normal;font-size:2.51672px;font-family:Impact;-inkscape-font-specification:'Impact Bold';display:inline;fill:#f7e2b3;fill-opacity:1;stroke-width:1.00669" x="-4.2942719" y="21.999704" id="text2246-7-3" transform="matrix(0.86247888,-0.49283817,0.49929724,0.87413997,0,0)"><tspan id="tspan2244-8-5" x="-4.2942719" y="21.999704" style="stroke-width:1.00669">Churn</tspan></text>
    <path style="display:inline;fill:#f7e2b3;fill-opacity:1;stroke-width:0.0286738" d="M 4.4446515,15.591619 C 5.0064526,10.97544 5.1088617,10.063276 5.0697126,10.024194 5.0439617,9.9984864 4.9460344,9.9182389 4.8520959,9.8458669 4.3434452,9.4539849 3.9090679,8.702924 3.8085447,8.0415109 3.7332059,7.5458032 3.7861587,6.9871109 3.953318,6.5140477 4.0210909,6.3222489 4.0838555,6.2067288 4.2831045,5.9070649 4.4983641,5.5833215 4.5568298,5.5124972 4.7498705,5.3416328 5.5644838,4.6206013 6.7184882,4.3881728 7.7220408,4.7430069 l 0.243168,0.085979 0.07028,-0.078407 C 8.9598792,3.7193227 9.8989532,3.1487016 11.108286,2.8834181 c 2.119937,-0.4650369 4.272628,0.3259229 5.570001,2.0465767 1.169629,1.5512309 1.434606,3.6474692 0.685055,5.4194892 -0.08197,0.193768 -0.16915,0.395203 -0.193748,0.447633 l -0.04472,0.09533 0.174135,0.190265 c 0.199127,0.217573 0.43708,0.595641 0.553682,0.879711 0.263626,0.642258 0.284266,1.409427 0.05623,2.090161 -0.08189,0.244446 -0.124244,0.325933 -0.338184,0.65055 -0.198026,0.300474 -0.279855,0.403374 -0.429936,0.540687 -0.370184,0.338666 -0.863806,0.605647 -1.349559,0.729927 -0.648133,0.165823 -1.5092,0.05933 -2.068636,-0.25583 -0.103319,-0.0582 -0.215427,-0.117003 -0.249135,-0.130658 -0.05123,-0.02076 -0.852092,0.430474 -4.8809939,2.750108 L 3.7727682,21.11231 Z m 4.7840987,0.115483 c 2.2111128,-1.273022 3.0068398,-1.74429 3.0076538,-1.781283 6.09e-4,-0.02766 -0.01262,-0.08853 -0.02939,-0.135257 -0.03035,-0.08452 -0.03135,-0.08498 -0.19784,-0.0905 -0.297813,-0.0099 -0.819377,-0.0957 -1.176795,-0.193646 C 9.7277422,13.203706 8.7273361,12.541647 8.0177299,11.643704 7.7872059,11.351999 7.5045098,10.905582 7.3789398,10.63497 c -0.07012,-0.151099 -0.07093,-0.15185 -0.160592,-0.146771 -0.04957,0.0028 -0.110763,0.0144 -0.135994,0.02577 -0.03374,0.0152 -0.1567382,0.931793 -0.4649207,3.464504 -0.2304758,1.894111 -0.4136874,3.447386 -0.4071375,3.451722 0.00659,0.0044 1.3648562,-0.771057 3.0184565,-1.723097 z" id="path330-0-9"/>
    <text xml:space="preserve" style="font-style:normal;font-variant:normal;font-weight:bold;font-stretch:normal;font-size:2.5px;font-family:Impact;-inkscape-font-specification:'Impact Bold';display:inline;fill:#c32f30;fill-opacity:1" x="-4.3121657" y="20.18502" id="text2246-7" transform="rotate(-29.907185)"><tspan id="tspan2244-8" x="-4.3121657" y="20.18502">Baby</tspan></text>
    <path style="display:inline;fill:#783c13;fill-opacity:1;stroke-width:0.0286738" d="M 4.7365842,13.179112 C 5.2983853,8.5629328 5.4007944,7.6507698 5.3616453,7.6116878 5.3358944,7.5859798 5.2379671,7.5057318 5.1440286,7.4333598 4.6353779,7.0414778 4.2010006,6.2904168 4.1004774,5.6290037 4.0251385,5.1332956 4.0780914,4.5746033 4.2452506,4.1015401 4.3130236,3.9097413 4.3757882,3.7942212 4.5750372,3.4945573 4.7902968,3.1708139 4.8487624,3.0999896 5.0418032,2.9291252 5.8564165,2.2080937 7.0104209,1.9756652 8.0139735,2.3304992 l 0.243168,0.085979 0.07028,-0.078407 c 0.92439,-1.0312562 1.8634645,-1.60187725 3.0727975,-1.86716075 2.119936,-0.4650369 4.272627,0.3259229 5.57,2.04657665 1.169629,1.551231 1.434606,3.6474693 0.685055,5.4194907 -0.08197,0.193767 -0.16915,0.395202 -0.193748,0.447632 l -0.04472,0.09533 0.174135,0.190265 c 0.199127,0.217573 0.43708,0.595641 0.553682,0.879711 0.263626,0.6422582 0.284266,1.4094272 0.05623,2.0901612 -0.08189,0.244446 -0.124244,0.325933 -0.338184,0.65055 -0.198026,0.300474 -0.279855,0.403374 -0.429936,0.540687 -0.370184,0.338666 -0.863806,0.605647 -1.349559,0.729927 -0.648133,0.165823 -1.5092,0.05933 -2.068636,-0.25583 -0.103319,-0.0582 -0.215427,-0.117003 -0.249135,-0.130658 -0.05123,-0.02076 -0.852092,0.430474 -4.8809935,2.750108 l -4.8197086,2.774942 z m 4.7840983,0.115483 c 2.2111135,-1.273022 3.0068395,-1.74429 3.0076535,-1.781283 6.09e-4,-0.02766 -0.01262,-0.08853 -0.02939,-0.135257 -0.03035,-0.08452 -0.03135,-0.08498 -0.19784,-0.0905 -0.297812,-0.0099 -0.819376,-0.0957 -1.176794,-0.193646 -1.104638,-0.30271 -2.1050435,-0.964769 -2.8146495,-1.8627122 -0.230524,-0.291705 -0.51322,-0.738122 -0.63879,-1.008734 -0.07012,-0.151099 -0.07093,-0.15185 -0.160592,-0.146771 -0.04957,0.0028 -0.110763,0.0144 -0.135994,0.02577 -0.03374,0.0152 -0.1567382,0.931793 -0.4649207,3.4645042 -0.2304758,1.894111 -0.4136874,3.447386 -0.4071375,3.451722 0.00659,0.0044 1.3648562,-0.771057 3.0184562,-1.723097 z" id="path330-0"/>
    <text xml:space="preserve" style="font-style:normal;font-variant:normal;font-weight:bold;font-stretch:normal;font-size:2.5px;font-family:Impact;-inkscape-font-specification:'Impact Bold';display:inline;fill:#f7e2b3;fill-opacity:1" x="-4.388196" y="18.248041" id="text2246" transform="rotate(-29.907185)"><tspan id="tspan2244" x="-4.388196" y="18.248041">Churn</tspan></text>
  </g>
  <g inkscape:groupmode="layer" id="layer1" inkscape:label="Layer 1">
    <rect style="display:none;fill:#783c13;fill-opacity:1;stroke-width:1.98434" id="rect981" width="11.191313" height="0.095050633" x="-0.058721211" y="-17.313841" transform="matrix(0.99999268,-0.00382527,-0.00460882,-0.99998938,0,0)"/>
  </g>
</svg>